<?xml version="1.0" encoding="UTF-8"?>
<svg width="32px" height="32px" viewBox="0 0 32 32" version="1.1" xmlns="http://www.w3.org/2000/svg">
    <title>Vite Logo</title>
    <g stroke="none" stroke-width="1" fill="none" fill-rule="evenodd">
        <path d="M16,0 C24.8366,0 32,7.16344 32,16 C32,24.8366 24.8366,32 16,32 C7.16344,32 0,24.8366 0,16 C0,7.16344 7.16344,0 16,0 Z" fill="#646CFF"></path>
        <path d="M25.5885,7.242 L14.1235,27.044 C13.9845,27.281 13.6535,27.294 13.4975,27.068 L6.13452,16.424 C5.97852,16.198 6.09852,15.898 6.36652,15.871 L10.4345,15.441 C10.5795,15.428 10.7155,15.508 10.7785,15.639 L14.0145,22.015 C14.1135,22.203 14.3805,22.203 14.4795,22.015 L21.4465,8.794 C21.5445,8.607 21.8115,8.607 21.9105,8.794 L25.4415,15.661 C25.5045,15.790 25.6395,15.870 25.7835,15.857 L29.6335,15.443 C29.9015,15.416 30.0215,15.116 29.8655,14.891 L25.5885,7.242 Z" fill="#FFFFFF" fill-rule="nonzero"></path>
    </g>
</svg>
